HIERARCHY
ROOT Hips
{{
    OFFSET 0.00 88.00 0.00
    CHANNELS 6 Xposition Yposition Zposition Zrotation Xrotation Yrotation
    JOINT UpperLeg_L
    {{
        OFFSET -20.00 -33.40 0.00
        CHANNELS 3 Zrotation Xrotation Yrotation
        JOINT LowerLeg_L
        {{
            OFFSET -4.00 -52.00 0.00
            CHANNELS 3 Zrotation Xrotation Yrotation
            JOINT Foot_L
            {{
                OFFSET -1.00 -38.00 0.00
                CHANNELS 3 Zrotation Xrotation Yrotation
                End Site
                {{
                    OFFSET 0.00 -15.00 0.00
                }}
            }}
        }}
    }}
    JOINT UpperLeg_R
    {{
        OFFSET 20.70 -33.40 0.00
        CHANNELS 3 Zrotation Xrotation Yrotation
        JOINT LowerLeg_R
        {{
            OFFSET 3.00 -52.00 0.00
            CHANNELS 3 Zrotation Xrotation Yrotation
            JOINT Foot_R
            {{
                OFFSET 1.00 -38.00 0.00
                CHANNELS 3 Zrotation Xrotation Yrotation
                End Site
                {{
                    OFFSET 0.00 -15.00 0.00
                }}
            }}
        }}
    }}
    JOINT Chest
    {{
        OFFSET 0.00 18.70 0.00
        CHANNELS 3 Zrotation Xrotation Yrotation
        JOINT UpperArm_L
        {{
            OFFSET -53.10 0.00 0.00
            CHANNELS 3 Zrotation Xrotation Yrotation
            JOINT LowerArm_L
            {{
                OFFSET 8.00 -33.60 0.00
                CHANNELS 3 Zrotation Xrotation Yrotation
                JOINT Hand_L
                {{
                    OFFSET -2.20 -37.00 0.00
                    CHANNELS 3 Zrotation Xrotation Yrotation
                    End Site
                    {{
                        OFFSET 0.00 -12.00 0.00
                    }}
                }}
            }}
        }}
        JOINT UpperArm_R
        {{
            OFFSET 49.00 0.00 0.00
            CHANNELS 3 Zrotation Xrotation Yrotation
            JOINT LowerArm_R
            {{
                OFFSET -4.80 -34.20 0.00
                CHANNELS 3 Zrotation Xrotation Yrotation
                JOINT Hand_R
                {{
                    OFFSET 2.50 -32.50 0.00
                    CHANNELS 3 Zrotation Xrotation Yrotation
                    End Site
                    {{
                        OFFSET 0.00 -12.00 0.00
                    }}
                }}
            }}
        }}
    }}
}}

MOTION
Frames: 33
Frame Time: 0.041667
0.000 88.0000 0.000 0.0000 0.000 0.000 0.000 0.0000 0.000 0.000 0.0000 0.000 0.000 -0.0000 0.000 0.000 -0.0000 0.000 0.000 0.0000 0.000 0.000 -0.0000 0.000 0.0000 0.000 0.000 0.000 -10.0000 0.000 0.000 -19.2058 0.000 0.000 -8.5359 0.000 0.000 -10.0000 0.000 0.000 -34.7942 0.000 0.000 -15.4641 0.000
0.000 88.0435 0.000 0.1583 0.000 0.000 0.000 0.9232 0.000 0.000 0.0000 0.000 0.000 -0.0000 0.000 0.000 -0.9232 0.000 0.000 0.7914 0.000 0.000 -0.3957 0.000 0.1583 0.000 0.000 0.000 -8.4173 0.000 0.000 -19.8674 0.000 0.000 -8.8299 0.000 0.000 -11.5827 0.000 0.000 -34.1326 0.000 0.000 -15.1701 0.000
0.000 88.1709 0.000 0.3138 0.000 0.000 0.000 1.8304 0.000 0.000 0.0000 0.000 0.000 -0.0000 0.000 0.000 -1.8304 0.000 0.000 1.5689 0.000 0.000 -0.7844 0.000 0.3138 0.000 0.000 0.000 -6.8622 0.000 0.000 -20.6536 0.000 0.000 -9.1794 0.000 0.000 -13.1378 0.000 0.000 -33.3464 0.000 0.000 -14.8206 0.000
0.000 88.3735 0.000 0.4638 0.000 0.000 0.000 2.7055 0.000 0.000 0.0000 0.000 0.000 -0.0000 0.000 0.000 -2.7055 0.000 0.000 2.3190 0.000 0.000 -1.1595 0.000 0.4638 0.000 0.000 0.000 -5.3620 0.000 0.000 -21.5507 0.000 0.000 -9.5781 0.000 0.000 -14.6380 0.000 0.000 -32.4493 0.000 0.000 -14.4219 0.000
0.000 88.6370 0.000 0.6057 0.000 0.000 0.000 3.5334 0.000 0.000 0.0000 0.000 0.000 -0.0000 0.000 0.000 -3.5334 0.000 0.000 3.0286 0.000 0.000 -1.5143 0.000 0.6057 0.000 0.000 0.000 -3.9428 0.000 0.000 -22.5430 0.000 0.000 -10.0191 0.000 0.000 -16.0572 0.000 0.000 -31.4570 0.000 0.000 -13.9809 0.000
0.000 88.9431 0.000 0.7371 0.000 0.000 0.000 4.2995 0.000 0.000 0.0000 0.000 0.000 -0.0000 0.000 0.000 -4.2995 0.000 0.000 3.6853 0.000 0.000 -1.8426 0.000 0.7371 0.000 0.000 0.000 -2.6294 0.000 0.000 -23.6132 0.000 0.000 -10.4948 0.000 0.000 -17.3706 0.000 0.000 -30.3868 0.000 0.000 -13.5052 0.000
0.000 89.2707 0.000 0.8555 0.000 0.000 0.000 4.9905 0.000 0.000 0.0000 0.000 0.000 -0.0000 0.000 0.000 -4.9905 0.000 0.000 4.2776 0.000 0.000 -2.1388 0.000 0.8555 0.000 0.000 0.000 -1.4449 0.000 0.000 -24.7426 0.000 0.000 -10.9967 0.000 0.000 -18.5551 0.000 0.000 -29.2574 0.000 0.000 -13.0033 0.000
0.000 89.5968 0.000 0.9590 0.000 0.000 0.000 5.5943 0.000 0.000 0.0000 0.000 0.000 -0.0000 0.000 0.000 -5.5943 0.000 0.000 4.7951 0.000 0.000 -2.3976 0.000 0.9590 0.000 0.000 0.000 -0.4097 0.000 0.000 -25.9114 0.000 0.000 -11.5162 0.000 0.000 -19.5903 0.000 0.000 -28.0886 0.000 0.000 -12.4838 0.000
0.000 89.8987 0.000 1.0458 0.000 0.000 0.000 6.1004 0.000 0.000 0.0000 0.000 0.000 -0.0000 0.000 0.000 -6.1004 0.000 0.000 5.2289 0.000 0.000 -2.6145 0.000 1.0458 0.000 0.000 0.000 0.4578 0.000 0.000 -27.0992 0.000 0.000 -12.0441 0.000 0.000 -20.4578 0.000 0.000 -26.9008 0.000 0.000 -11.9559 0.000
0.000 90.1555 0.000 1.1143 0.000 0.000 0.000 6.4999 0.000 0.000 0.0000 0.000 0.000 -0.0000 0.000 0.000 -6.4999 0.000 0.000 5.5713 0.000 0.000 -2.7857 0.000 1.1143 0.000 0.000 0.000 1.1426 0.000 0.000 -28.2853 0.000 0.000 -12.5712 0.000 0.000 -21.1426 0.000 0.000 -25.7147 0.000 0.000 -11.4288 0.000
0.000 90.3493 0.000 1.1633 0.000 0.000 0.000 6.7858 0.000 0.000 0.0000 0.000 0.000 -0.0000 0.000 0.000 -6.7858 0.000 0.000 5.8164 0.000 0.000 -2.9082 0.000 1.1633 0.000 0.000 0.000 1.6328 0.000 0.000 -29.4489 0.000 0.000 -13.0884 0.000 0.000 -21.6328 0.000 0.000 -24.5511 0.000 0.000 -10.9116 0.000
0.000 90.4667 0.000 1.1920 0.000 0.000 0.000 6.9532 0.000 0.000 0.0000 0.000 0.000 -0.0000 0.000 0.000 -6.9532 0.000 0.000 5.9599 0.000 0.000 -2.9799 0.000 1.1920 0.000 0.000 0.000 1.9197 0.000 0.000 -30.5698 0.000 0.000 -13.5866 0.000 0.000 -21.9197 0.000 0.000 -23.4302 0.000 0.000 -10.4134 0.000
0.000 90.4993 0.000 1.1998 0.000 0.000 0.000 6.9990 0.000 0.000 0.0000 0.000 0.000 -0.0000 0.000 0.000 -6.9990 0.000 0.000 5.9992 0.000 0.000 -2.9996 0.000 1.1998 0.000 0.000 0.000 1.9984 0.000 0.000 -31.6283 0.000 0.000 -14.0570 0.000 0.000 -21.9984 0.000 0.000 -22.3717 0.000 0.000 -9.9430 0.000
0.000 90.4450 0.000 1.1867 0.000 0.000 0.000 6.9226 0.000 0.000 0.0000 0.000 0.000 -0.0000 0.000 0.000 -6.9226 0.000 0.000 5.9337 0.000 0.000 -2.9668 0.000 1.1867 0.000 0.000 0.000 1.8674 0.000 0.000 -32.6059 0.000 0.000 -14.4915 0.000 0.000 -21.8674 0.000 0.000 -21.3941 0.000 0.000 -9.5085 0.000
0.000 90.3076 0.000 1.1529 0.000 0.000 0.000 6.7253 0.000 0.000 0.0000 0.000 0.000 -0.0000 0.000 0.000 -6.7253 0.000 0.000 5.7645 0.000 0.000 -2.8823 0.000 1.1529 0.000 0.000 0.000 1.5290 0.000 0.000 -33.4855 0.000 0.000 -14.8825 0.000 0.000 -21.5290 0.000 0.000 -20.5145 0.000 0.000 -9.1175 0.000
0.000 90.0966 0.000 1.0989 0.000 0.000 0.000 6.4104 0.000 0.000 0.0000 0.000 0.000 -0.0000 0.000 0.000 -6.4104 0.000 0.000 5.4946 0.000 0.000 -2.7473 0.000 1.0989 0.000 0.000 0.000 0.9893 0.000 0.000 -34.2519 0.000 0.000 -15.2231 0.000 0.000 -20.9893 0.000 0.000 -19.7481 0.000 0.000 -8.7769 0.000
0.000 89.8267 0.000 1.0258 0.000 0.000 0.000 5.9835 0.000 0.000 0.0000 0.000 0.000 -0.0000 0.000 0.000 -5.9835 0.000 0.000 5.1288 0.000 0.000 -2.5644 0.000 1.0258 0.000 0.000 0.000 0.2575 0.000 0.000 -34.8915 0.000 0.000 -15.5073 0.000 0.000 -20.2575 0.000 0.000 -19.1085 0.000 0.000 -8.4927 0.000
0.000 89.5166 0.000 0.9347 0.000 0.000 0.000 5.4521 0.000 0.000 0.0000 0.000 0.000 -0.0000 0.000 0.000 -5.4521 0.000 0.000 4.6733 0.000 0.000 -2.3366 0.000 0.9347 0.000 0.000 0.000 -0.6535 0.000 0.000 -35.3933 0.000 0.000 -15.7304 0.000 0.000 -19.3465 0.000 0.000 -18.6067 0.000 0.000 -8.2696 0.000
0.000 89.1880 0.000 0.8272 0.000 0.000 0.000 4.8255 0.000 0.000 0.0000 0.000 0.000 -0.0000 0.000 0.000 -4.8255 0.000 0.000 4.1361 0.000 0.000 -2.0681 0.000 0.8272 0.000 0.000 0.000 -1.7278 0.000 0.000 -35.7484 0.000 0.000 -15.8882 0.000 0.000 -18.2722 0.000 0.000 -18.2516 0.000 0.000 -8.1118 0.000
0.000 88.8637 0.000 0.7053 0.000 0.000 0.000 4.1145 0.000 0.000 0.0000 0.000 0.000 -0.0000 0.000 0.000 -4.1145 0.000 0.000 3.5267 0.000 0.000 -1.7634 0.000 0.7053 0.000 0.000 0.000 -2.9466 0.000 0.000 -35.9507 0.000 0.000 -15.9781 0.000 0.000 -17.0534 0.000 0.000 -18.0493 0.000 0.000 -8.0219 0.000
0.000 88.5663 0.000 0.5711 0.000 0.000 0.000 3.3316 0.000 0.000 0.0000 0.000 0.000 -0.0000 0.000 0.000 -3.3316 0.000 0.000 2.8557 0.000 0.000 -1.4278 0.000 0.5711 0.000 0.000 0.000 -4.2886 0.000 0.000 -35.9966 0.000 0.000 -15.9985 0.000 0.000 -15.7114 0.000 0.000 -18.0034 0.000 0.000 -8.0015 0.000
0.000 88.3165 0.000 0.4270 0.000 0.000 0.000 2.4906 0.000 0.000 0.0000 0.000 0.000 -0.0000 0.000 0.000 -2.4906 0.000 0.000 2.1348 0.000 0.000 -1.0674 0.000 0.4270 0.000 0.000 0.000 -5.7305 0.000 0.000 -35.8853 0.000 0.000 -15.9490 0.000 0.000 -14.2695 0.000 0.000 -18.1147 0.000 0.000 -8.0510 0.000
0.000 88.1316 0.000 0.2753 0.000 0.000 0.000 1.6060 0.000 0.000 0.0000 0.000 0.000 -0.0000 0.000 0.000 -1.6060 0.000 0.000 1.3765 0.000 0.000 -0.6883 0.000 0.2753 0.000 0.000 0.000 -7.2469 0.000 0.000 -35.6187 0.000 0.000 -15.8306 0.000 0.000 -12.7531 0.000 0.000 -18.3813 0.000 0.000 -8.1694 0.000
0.000 88.0245 0.000 0.1189 0.000 0.000 0.000 0.6933 0.000 0.000 0.0000 0.000 0.000 -0.0000 0.000 0.000 -0.6933 0.000 0.000 0.5943 0.000 0.000 -0.2971 0.000 0.1189 0.000 0.000 0.000 -8.8115 0.000 0.000 -35.2016 0.000 0.000 -15.6452 0.000 0.000 -11.1885 0.000 0.000 -18.7984 0.000 0.000 -8.3548 0.000
0.000 88.0027 0.000 -0.0397 0.000 0.000 0.000 -0.2314 0.000 0.000 0.1984 0.000 0.000 -0.0992 0.000 0.000 0.2314 0.000 0.000 0.0000 0.000 0.000 -0.0000 0.000 -0.0397 0.000 0.000 0.000 -10.3968 0.000 0.000 -34.6412 0.000 0.000 -15.3961 0.000 0.000 -9.6032 0.000 0.000 -19.3588 0.000 0.000 -8.6039 0.000
0.000 88.0677 0.000 -0.1975 0.000 0.000 0.000 -1.1522 0.000 0.000 0.9876 0.000 0.000 -0.4938 0.000 0.000 1.1522 0.000 0.000 0.0000 0.000 0.000 -0.0000 0.000 -0.1975 0.000 0.000 0.000 -11.9751 0.000 0.000 -33.9472 0.000 0.000 -15.0877 0.000 0.000 -8.0249 0.000 0.000 -20.0528 0.000 0.000 -8.9123 0.000
0.000 88.2150 0.000 -0.3519 0.000 0.000 0.000 -2.0528 0.000 0.000 1.7595 0.000 0.000 -0.8798 0.000 0.000 2.0528 0.000 0.000 0.0000 0.000 0.000 -0.0000 0.000 -0.3519 0.000 0.000 0.000 -13.5190 0.000 0.000 -33.1319 0.000 0.000 -14.7253 0.000 0.000 -6.4810 0.000 0.000 -20.8681 0.000 0.000 -9.2747 0.000
0.000 88.4343 0.000 -0.5001 0.000 0.000 0.000 -2.9175 0.000 0.000 2.5007 0.000 0.000 -1.2503 0.000 0.000 2.9175 0.000 0.000 0.0000 0.000 0.000 -0.0000 0.000 -0.5001 0.000 0.000 0.000 -15.0014 0.000 0.000 -32.2095 0.000 0.000 -14.3153 0.000 0.000 -4.9986 0.000 0.000 -21.7905 0.000 0.000 -9.6847 0.000
0.000 88.7103 0.000 -0.6396 0.000 0.000 0.000 -3.7312 0.000 0.000 3.1982 0.000 0.000 -1.5991 0.000 0.000 3.7312 0.000 0.000 0.0000 0.000 0.000 -0.0000 0.000 -0.6396 0.000 0.000 0.000 -16.3964 0.000 0.000 -31.1960 0.000 0.000 -13.8649 0.000 0.000 -3.6036 0.000 0.000 -22.8040 0.000 0.000 -10.1351 0.000
0.000 89.0239 0.000 -0.7680 0.000 0.000 0.000 -4.4798 0.000 0.000 3.8398 0.000 0.000 -1.9199 0.000 0.000 4.4798 0.000 0.000 0.0000 0.000 0.000 -0.0000 0.000 -0.7680 0.000 0.000 0.000 -17.6796 0.000 0.000 -30.1092 0.000 0.000 -13.3819 0.000 0.000 -2.3204 0.000 0.000 -23.8908 0.000 0.000 -10.6181 0.000
0.000 89.3532 0.000 -0.8829 0.000 0.000 0.000 -5.1501 0.000 0.000 4.4143 0.000 0.000 -2.2072 0.000 0.000 5.1501 0.000 0.000 0.0000 0.000 0.000 -0.0000 0.000 -0.8829 0.000 0.000 0.000 -18.8287 0.000 0.000 -28.9681 0.000 0.000 -12.8747 0.000 0.000 -1.1713 0.000 0.000 -25.0319 0.000 0.000 -11.1253 0.000
0.000 89.6754 0.000 -0.9823 0.000 0.000 0.000 -5.7304 0.000 0.000 4.9117 0.000 0.000 -2.4559 0.000 0.000 5.7304 0.000 0.000 0.0000 0.000 0.000 -0.0000 0.000 -0.9823 0.000 0.000 0.000 -19.8235 0.000 0.000 -27.7926 0.000 0.000 -12.3523 0.000 0.000 -0.1765 0.000 0.000 -26.2074 0.000 0.000 -11.6477 0.000
0.000 89.9679 0.000 -1.0647 0.000 0.000 0.000 -6.2106 0.000 0.000 5.3233 0.000 0.000 -2.6617 0.000 0.000 6.2106 0.000 0.000 0.0000 0.000 0.000 -0.0000 0.000 -1.0647 0.000 0.000 0.000 -20.6467 0.000 0.000 -26.6033 0.000 0.000 -11.8237 0.000 0.000 0.6467 0.000 0.000 -27.3967 0.000 0.000 -12.1763 0.000
